<mxfile host="app.diagrams.net" modified="2023-06-17T13:39:45.679Z" agent="Mozilla/5.0 (Windows NT 10.0; Win64; x64) AppleWebKit/537.36 (KHTML, like Gecko) Chrome/114.0.0.0 Safari/537.36" etag="XYlvcbfHdga8h5TlsWDE" version="21.4.0" type="github">
  <diagram name="Page-1" id="bIi9yd2owrqy-EjI1N7u">
    <mxGraphModel dx="880" dy="484" grid="1" gridSize="10" guides="1" tooltips="1" connect="1" arrows="1" fold="1" page="1" pageScale="1" pageWidth="850" pageHeight="1100" math="0" shadow="0">
      <root>
        <mxCell id="0" />
        <mxCell id="1" parent="0" />
        <mxCell id="Z0Qa1kHuuDU5W5lxsVWx-2" value="Postal code entered" style="ellipse;whiteSpace=wrap;html=1;align=center;" parent="1" vertex="1">
          <mxGeometry x="60" y="110" width="100" height="40" as="geometry" />
        </mxCell>
        <mxCell id="Z0Qa1kHuuDU5W5lxsVWx-4" value="Validate" style="shape=rhombus;perimeter=rhombusPerimeter;whiteSpace=wrap;html=1;align=center;" parent="1" vertex="1">
          <mxGeometry x="600" y="110" width="120" height="60" as="geometry" />
        </mxCell>
        <mxCell id="Z0Qa1kHuuDU5W5lxsVWx-5" value="Postal code" style="rounded=1;arcSize=10;whiteSpace=wrap;html=1;align=center;" parent="1" vertex="1">
          <mxGeometry x="500" y="60" width="100" height="40" as="geometry" />
        </mxCell>
        <mxCell id="Z0Qa1kHuuDU5W5lxsVWx-7" value="Postal Code" style="ellipse;whiteSpace=wrap;html=1;align=center;" parent="1" vertex="1">
          <mxGeometry x="375" y="90" width="100" height="40" as="geometry" />
        </mxCell>
        <mxCell id="Z0Qa1kHuuDU5W5lxsVWx-9" value="City" style="ellipse;whiteSpace=wrap;html=1;align=center;" parent="1" vertex="1">
          <mxGeometry x="660" y="30" width="100" height="40" as="geometry" />
        </mxCell>
        <mxCell id="Z0Qa1kHuuDU5W5lxsVWx-10" value="Latitude" style="ellipse;whiteSpace=wrap;html=1;align=center;" parent="1" vertex="1">
          <mxGeometry x="520" y="10" width="100" height="40" as="geometry" />
        </mxCell>
        <mxCell id="Z0Qa1kHuuDU5W5lxsVWx-11" value="State" style="ellipse;whiteSpace=wrap;html=1;align=center;" parent="1" vertex="1">
          <mxGeometry x="465" y="130" width="100" height="40" as="geometry" />
        </mxCell>
        <mxCell id="Z0Qa1kHuuDU5W5lxsVWx-12" value="Longitude" style="ellipse;whiteSpace=wrap;html=1;align=center;" parent="1" vertex="1">
          <mxGeometry x="365" y="30" width="100" height="40" as="geometry" />
        </mxCell>
        <mxCell id="Z0Qa1kHuuDU5W5lxsVWx-21" value="" style="endArrow=none;html=1;rounded=0;entryX=0.5;entryY=1;entryDx=0;entryDy=0;" parent="1" source="Z0Qa1kHuuDU5W5lxsVWx-5" target="Z0Qa1kHuuDU5W5lxsVWx-9" edge="1">
          <mxGeometry relative="1" as="geometry">
            <mxPoint x="340" y="50" as="sourcePoint" />
            <mxPoint x="500" y="50" as="targetPoint" />
          </mxGeometry>
        </mxCell>
        <mxCell id="Z0Qa1kHuuDU5W5lxsVWx-25" value="" style="endArrow=none;html=1;rounded=0;entryX=0.75;entryY=0;entryDx=0;entryDy=0;exitX=1;exitY=1;exitDx=0;exitDy=0;" parent="1" source="Z0Qa1kHuuDU5W5lxsVWx-10" target="Z0Qa1kHuuDU5W5lxsVWx-5" edge="1">
          <mxGeometry relative="1" as="geometry">
            <mxPoint x="125" y="60" as="sourcePoint" />
            <mxPoint x="127" y="5" as="targetPoint" />
          </mxGeometry>
        </mxCell>
        <mxCell id="Z0Qa1kHuuDU5W5lxsVWx-34" value="" style="shape=link;html=1;rounded=0;exitX=0.45;exitY=1.017;exitDx=0;exitDy=0;entryX=0.5;entryY=0;entryDx=0;entryDy=0;exitPerimeter=0;" parent="1" source="Z0Qa1kHuuDU5W5lxsVWx-4" edge="1">
          <mxGeometry relative="1" as="geometry">
            <mxPoint x="340" y="50" as="sourcePoint" />
            <mxPoint x="380" y="260" as="targetPoint" />
            <Array as="points">
              <mxPoint x="550" y="200" />
            </Array>
          </mxGeometry>
        </mxCell>
        <mxCell id="Z0Qa1kHuuDU5W5lxsVWx-35" value="1" style="resizable=0;html=1;whiteSpace=wrap;align=right;verticalAlign=bottom;" parent="Z0Qa1kHuuDU5W5lxsVWx-34" connectable="0" vertex="1">
          <mxGeometry x="1" relative="1" as="geometry">
            <mxPoint x="-10" as="offset" />
          </mxGeometry>
        </mxCell>
        <mxCell id="Z0Qa1kHuuDU5W5lxsVWx-36" value="" style="endArrow=none;html=1;rounded=0;entryX=1;entryY=0.5;entryDx=0;entryDy=0;exitX=0;exitY=0.5;exitDx=0;exitDy=0;" parent="1" source="Z0Qa1kHuuDU5W5lxsVWx-4" target="Z0Qa1kHuuDU5W5lxsVWx-5" edge="1">
          <mxGeometry relative="1" as="geometry">
            <mxPoint x="340" y="50" as="sourcePoint" />
            <mxPoint x="500" y="50" as="targetPoint" />
          </mxGeometry>
        </mxCell>
        <mxCell id="Z0Qa1kHuuDU5W5lxsVWx-173" value="!" style="edgeLabel;html=1;align=center;verticalAlign=middle;resizable=0;points=[];" parent="Z0Qa1kHuuDU5W5lxsVWx-36" vertex="1" connectable="0">
          <mxGeometry x="0.4667" y="-5" relative="1" as="geometry">
            <mxPoint as="offset" />
          </mxGeometry>
        </mxCell>
        <mxCell id="Z0Qa1kHuuDU5W5lxsVWx-38" value="" style="endArrow=none;html=1;rounded=0;entryX=0;entryY=0.5;entryDx=0;entryDy=0;exitX=1;exitY=0.5;exitDx=0;exitDy=0;" parent="1" source="Z0Qa1kHuuDU5W5lxsVWx-12" target="Z0Qa1kHuuDU5W5lxsVWx-5" edge="1">
          <mxGeometry relative="1" as="geometry">
            <mxPoint x="105" y="-26" as="sourcePoint" />
            <mxPoint x="115" y="50" as="targetPoint" />
          </mxGeometry>
        </mxCell>
        <mxCell id="Z0Qa1kHuuDU5W5lxsVWx-39" value="" style="endArrow=none;html=1;rounded=0;exitX=0.5;exitY=0;exitDx=0;exitDy=0;entryX=0.88;entryY=0.975;entryDx=0;entryDy=0;entryPerimeter=0;" parent="1" source="Z0Qa1kHuuDU5W5lxsVWx-11" target="Z0Qa1kHuuDU5W5lxsVWx-5" edge="1">
          <mxGeometry width="50" height="50" relative="1" as="geometry">
            <mxPoint x="400" y="80" as="sourcePoint" />
            <mxPoint x="450" y="30" as="targetPoint" />
          </mxGeometry>
        </mxCell>
        <mxCell id="Z0Qa1kHuuDU5W5lxsVWx-40" value="" style="endArrow=none;html=1;rounded=0;exitX=0.25;exitY=0;exitDx=0;exitDy=0;" parent="1" target="Z0Qa1kHuuDU5W5lxsVWx-2" edge="1">
          <mxGeometry width="50" height="50" relative="1" as="geometry">
            <mxPoint x="355" y="260" as="sourcePoint" />
            <mxPoint x="450" y="130" as="targetPoint" />
          </mxGeometry>
        </mxCell>
        <mxCell id="Z0Qa1kHuuDU5W5lxsVWx-42" value="HouseholdType" style="ellipse;whiteSpace=wrap;html=1;align=center;" parent="1" vertex="1">
          <mxGeometry x="35" y="270" width="100" height="40" as="geometry" />
        </mxCell>
        <mxCell id="Z0Qa1kHuuDU5W5lxsVWx-43" value="SquareFoot" style="ellipse;whiteSpace=wrap;html=1;align=center;" parent="1" vertex="1">
          <mxGeometry x="35" y="218" width="100" height="40" as="geometry" />
        </mxCell>
        <mxCell id="Z0Qa1kHuuDU5W5lxsVWx-44" value="PublicUtilitises" style="ellipse;shape=doubleEllipse;margin=3;whiteSpace=wrap;html=1;align=center;" parent="1" vertex="1">
          <mxGeometry x="40" y="170" width="100" height="40" as="geometry" />
        </mxCell>
        <mxCell id="Z0Qa1kHuuDU5W5lxsVWx-45" value="" style="endArrow=none;html=1;rounded=0;entryX=0;entryY=0.75;entryDx=0;entryDy=0;exitX=1;exitY=0.5;exitDx=0;exitDy=0;" parent="1" source="Z0Qa1kHuuDU5W5lxsVWx-42" edge="1">
          <mxGeometry width="50" height="50" relative="1" as="geometry">
            <mxPoint x="400" y="180" as="sourcePoint" />
            <mxPoint x="330" y="290" as="targetPoint" />
          </mxGeometry>
        </mxCell>
        <mxCell id="Z0Qa1kHuuDU5W5lxsVWx-46" value="" style="endArrow=none;html=1;rounded=0;entryX=1;entryY=0;entryDx=0;entryDy=0;exitX=0;exitY=0.5;exitDx=0;exitDy=0;" parent="1" target="Z0Qa1kHuuDU5W5lxsVWx-43" edge="1">
          <mxGeometry width="50" height="50" relative="1" as="geometry">
            <mxPoint x="330" y="280" as="sourcePoint" />
            <mxPoint x="450" y="130" as="targetPoint" />
          </mxGeometry>
        </mxCell>
        <mxCell id="Z0Qa1kHuuDU5W5lxsVWx-47" value="" style="endArrow=none;html=1;rounded=0;exitX=1;exitY=0.5;exitDx=0;exitDy=0;entryX=0.25;entryY=0;entryDx=0;entryDy=0;" parent="1" source="Z0Qa1kHuuDU5W5lxsVWx-44" edge="1">
          <mxGeometry width="50" height="50" relative="1" as="geometry">
            <mxPoint x="400" y="180" as="sourcePoint" />
            <mxPoint x="355" y="260" as="targetPoint" />
          </mxGeometry>
        </mxCell>
        <mxCell id="Z0Qa1kHuuDU5W5lxsVWx-49" value="has" style="rhombus;whiteSpace=wrap;html=1;" parent="1" vertex="1">
          <mxGeometry x="140" y="370" width="80" height="80" as="geometry" />
        </mxCell>
        <mxCell id="Z0Qa1kHuuDU5W5lxsVWx-53" value="HeatingOption" style="ellipse;whiteSpace=wrap;html=1;align=center;" parent="1" vertex="1">
          <mxGeometry x="10" y="478" width="100" height="40" as="geometry" />
        </mxCell>
        <mxCell id="Z0Qa1kHuuDU5W5lxsVWx-54" value="HeatTemperature" style="ellipse;whiteSpace=wrap;html=1;align=center;" parent="1" vertex="1">
          <mxGeometry x="10" y="530" width="100" height="40" as="geometry" />
        </mxCell>
        <mxCell id="Z0Qa1kHuuDU5W5lxsVWx-55" value="" style="endArrow=none;html=1;rounded=0;exitX=0.5;exitY=1;exitDx=0;exitDy=0;entryX=0.5;entryY=0;entryDx=0;entryDy=0;" parent="1" source="Z0Qa1kHuuDU5W5lxsVWx-49" target="Z0Qa1kHuuDU5W5lxsVWx-67" edge="1">
          <mxGeometry relative="1" as="geometry">
            <mxPoint x="340" y="500" as="sourcePoint" />
            <mxPoint x="230" y="510" as="targetPoint" />
          </mxGeometry>
        </mxCell>
        <mxCell id="Z0Qa1kHuuDU5W5lxsVWx-56" value="1" style="resizable=0;html=1;whiteSpace=wrap;align=right;verticalAlign=bottom;" parent="Z0Qa1kHuuDU5W5lxsVWx-55" connectable="0" vertex="1">
          <mxGeometry x="1" relative="1" as="geometry" />
        </mxCell>
        <mxCell id="Z0Qa1kHuuDU5W5lxsVWx-60" value="" style="endArrow=none;html=1;rounded=0;entryX=1;entryY=0.5;entryDx=0;entryDy=0;exitX=0;exitY=0.5;exitDx=0;exitDy=0;" parent="1" source="Z0Qa1kHuuDU5W5lxsVWx-67" target="Z0Qa1kHuuDU5W5lxsVWx-54" edge="1">
          <mxGeometry width="50" height="50" relative="1" as="geometry">
            <mxPoint x="241" y="551" as="sourcePoint" />
            <mxPoint x="450" y="470" as="targetPoint" />
          </mxGeometry>
        </mxCell>
        <mxCell id="Z0Qa1kHuuDU5W5lxsVWx-61" value="" style="endArrow=none;html=1;rounded=0;exitX=1;exitY=0.5;exitDx=0;exitDy=0;entryX=0.17;entryY=-0.05;entryDx=0;entryDy=0;entryPerimeter=0;" parent="1" source="Z0Qa1kHuuDU5W5lxsVWx-53" target="Z0Qa1kHuuDU5W5lxsVWx-67" edge="1">
          <mxGeometry width="50" height="50" relative="1" as="geometry">
            <mxPoint x="400" y="520" as="sourcePoint" />
            <mxPoint x="230" y="550" as="targetPoint" />
          </mxGeometry>
        </mxCell>
        <mxCell id="Z0Qa1kHuuDU5W5lxsVWx-63" value="1" style="text;html=1;align=center;verticalAlign=middle;resizable=0;points=[];autosize=1;strokeColor=none;fillColor=none;" parent="1" vertex="1">
          <mxGeometry x="335" y="298" width="30" height="30" as="geometry" />
        </mxCell>
        <mxCell id="Z0Qa1kHuuDU5W5lxsVWx-64" value="" style="endArrow=none;html=1;rounded=0;exitX=0.5;exitY=0;exitDx=0;exitDy=0;entryX=0.5;entryY=1;entryDx=0;entryDy=0;" parent="1" source="Z0Qa1kHuuDU5W5lxsVWx-49" edge="1">
          <mxGeometry width="50" height="50" relative="1" as="geometry">
            <mxPoint x="400" y="320" as="sourcePoint" />
            <mxPoint x="380" y="300" as="targetPoint" />
            <Array as="points">
              <mxPoint x="310" y="370" />
            </Array>
          </mxGeometry>
        </mxCell>
        <mxCell id="Z0Qa1kHuuDU5W5lxsVWx-65" value="has" style="rhombus;whiteSpace=wrap;html=1;" parent="1" vertex="1">
          <mxGeometry x="320" y="370" width="80" height="80" as="geometry" />
        </mxCell>
        <mxCell id="Z0Qa1kHuuDU5W5lxsVWx-66" value="Cooling" style="whiteSpace=wrap;html=1;align=center;" parent="1" vertex="1">
          <mxGeometry x="320" y="500" width="100" height="40" as="geometry" />
        </mxCell>
        <mxCell id="Z0Qa1kHuuDU5W5lxsVWx-67" value="Heating" style="whiteSpace=wrap;html=1;align=center;" parent="1" vertex="1">
          <mxGeometry x="130" y="498" width="100" height="40" as="geometry" />
        </mxCell>
        <mxCell id="Z0Qa1kHuuDU5W5lxsVWx-68" value="" style="endArrow=none;html=1;rounded=0;entryX=0.5;entryY=1;entryDx=0;entryDy=0;exitX=0.5;exitY=0;exitDx=0;exitDy=0;" parent="1" source="Z0Qa1kHuuDU5W5lxsVWx-65" edge="1">
          <mxGeometry width="50" height="50" relative="1" as="geometry">
            <mxPoint x="390" y="400" as="sourcePoint" />
            <mxPoint x="380" y="300" as="targetPoint" />
          </mxGeometry>
        </mxCell>
        <mxCell id="Z0Qa1kHuuDU5W5lxsVWx-70" value="CoolingOption" style="ellipse;whiteSpace=wrap;html=1;align=center;" parent="1" vertex="1">
          <mxGeometry x="230" y="570" width="100" height="40" as="geometry" />
        </mxCell>
        <mxCell id="Z0Qa1kHuuDU5W5lxsVWx-71" value="CoolTemperature" style="ellipse;whiteSpace=wrap;html=1;align=center;" parent="1" vertex="1">
          <mxGeometry x="335" y="570" width="100" height="40" as="geometry" />
        </mxCell>
        <mxCell id="Z0Qa1kHuuDU5W5lxsVWx-72" value="" style="endArrow=none;html=1;rounded=0;exitX=0.61;exitY=1.025;exitDx=0;exitDy=0;exitPerimeter=0;entryX=0.38;entryY=0.025;entryDx=0;entryDy=0;entryPerimeter=0;" parent="1" source="Z0Qa1kHuuDU5W5lxsVWx-66" target="Z0Qa1kHuuDU5W5lxsVWx-71" edge="1">
          <mxGeometry width="50" height="50" relative="1" as="geometry">
            <mxPoint x="400" y="520" as="sourcePoint" />
            <mxPoint x="450" y="570" as="targetPoint" />
          </mxGeometry>
        </mxCell>
        <mxCell id="Z0Qa1kHuuDU5W5lxsVWx-73" value="" style="endArrow=none;html=1;rounded=0;exitX=0.5;exitY=0;exitDx=0;exitDy=0;entryX=0.12;entryY=1.025;entryDx=0;entryDy=0;entryPerimeter=0;" parent="1" source="Z0Qa1kHuuDU5W5lxsVWx-70" target="Z0Qa1kHuuDU5W5lxsVWx-66" edge="1">
          <mxGeometry width="50" height="50" relative="1" as="geometry">
            <mxPoint x="400" y="520" as="sourcePoint" />
            <mxPoint x="450" y="470" as="targetPoint" />
          </mxGeometry>
        </mxCell>
        <mxCell id="Z0Qa1kHuuDU5W5lxsVWx-74" value="" style="endArrow=none;html=1;rounded=0;entryX=0.5;entryY=1;entryDx=0;entryDy=0;exitX=0.4;exitY=0.05;exitDx=0;exitDy=0;exitPerimeter=0;" parent="1" source="Z0Qa1kHuuDU5W5lxsVWx-66" target="Z0Qa1kHuuDU5W5lxsVWx-65" edge="1">
          <mxGeometry width="50" height="50" relative="1" as="geometry">
            <mxPoint x="380" y="520" as="sourcePoint" />
            <mxPoint x="450" y="470" as="targetPoint" />
          </mxGeometry>
        </mxCell>
        <mxCell id="Z0Qa1kHuuDU5W5lxsVWx-76" value="1" style="text;html=1;align=center;verticalAlign=middle;resizable=0;points=[];autosize=1;strokeColor=none;fillColor=none;" parent="1" vertex="1">
          <mxGeometry x="375" y="298" width="30" height="30" as="geometry" />
        </mxCell>
        <mxCell id="Z0Qa1kHuuDU5W5lxsVWx-85" value="1" style="text;html=1;align=center;verticalAlign=middle;resizable=0;points=[];autosize=1;strokeColor=none;fillColor=none;" parent="1" vertex="1">
          <mxGeometry x="385" y="508" width="30" height="30" as="geometry" />
        </mxCell>
        <mxCell id="Z0Qa1kHuuDU5W5lxsVWx-86" value="HouseholdInfo" style="whiteSpace=wrap;html=1;align=center;" parent="1" vertex="1">
          <mxGeometry x="330" y="258" width="100" height="40" as="geometry" />
        </mxCell>
        <mxCell id="Z0Qa1kHuuDU5W5lxsVWx-87" value="" style="shape=link;html=1;rounded=0;entryX=1;entryY=0.5;entryDx=0;entryDy=0;exitX=0.5;exitY=0;exitDx=0;exitDy=0;" parent="1" source="Z0Qa1kHuuDU5W5lxsVWx-103" target="Z0Qa1kHuuDU5W5lxsVWx-86" edge="1">
          <mxGeometry relative="1" as="geometry">
            <mxPoint x="600" y="410" as="sourcePoint" />
            <mxPoint x="500" y="400" as="targetPoint" />
          </mxGeometry>
        </mxCell>
        <mxCell id="Z0Qa1kHuuDU5W5lxsVWx-88" value="1" style="resizable=0;html=1;whiteSpace=wrap;align=right;verticalAlign=bottom;" parent="Z0Qa1kHuuDU5W5lxsVWx-87" connectable="0" vertex="1">
          <mxGeometry x="1" relative="1" as="geometry" />
        </mxCell>
        <mxCell id="Z0Qa1kHuuDU5W5lxsVWx-91" value="M" style="text;html=1;align=center;verticalAlign=middle;resizable=0;points=[];autosize=1;strokeColor=none;fillColor=none;" parent="1" vertex="1">
          <mxGeometry x="435" y="258" width="30" height="30" as="geometry" />
        </mxCell>
        <mxCell id="Z0Qa1kHuuDU5W5lxsVWx-92" value="Airhandler" style="whiteSpace=wrap;html=1;align=center;" parent="1" vertex="1">
          <mxGeometry x="390" y="790" width="100" height="40" as="geometry" />
        </mxCell>
        <mxCell id="Z0Qa1kHuuDU5W5lxsVWx-93" value="WaterHeater" style="whiteSpace=wrap;html=1;align=center;" parent="1" vertex="1">
          <mxGeometry x="560" y="710" width="100" height="40" as="geometry" />
        </mxCell>
        <mxCell id="Z0Qa1kHuuDU5W5lxsVWx-95" value="d" style="ellipse;whiteSpace=wrap;html=1;aspect=fixed;" parent="1" vertex="1">
          <mxGeometry x="565" y="655" width="30" height="30" as="geometry" />
        </mxCell>
        <mxCell id="Z0Qa1kHuuDU5W5lxsVWx-98" value="" style="endArrow=none;html=1;rounded=0;exitX=0.5;exitY=0;exitDx=0;exitDy=0;entryX=0.5;entryY=1;entryDx=0;entryDy=0;" parent="1" source="Z0Qa1kHuuDU5W5lxsVWx-92" target="Z0Qa1kHuuDU5W5lxsVWx-95" edge="1">
          <mxGeometry width="50" height="50" relative="1" as="geometry">
            <mxPoint x="400" y="620" as="sourcePoint" />
            <mxPoint x="450" y="570" as="targetPoint" />
          </mxGeometry>
        </mxCell>
        <mxCell id="Z0Qa1kHuuDU5W5lxsVWx-99" value="" style="endArrow=none;html=1;rounded=0;exitX=0.41;exitY=-0.025;exitDx=0;exitDy=0;exitPerimeter=0;entryX=1;entryY=1;entryDx=0;entryDy=0;" parent="1" source="Z0Qa1kHuuDU5W5lxsVWx-93" target="Z0Qa1kHuuDU5W5lxsVWx-95" edge="1">
          <mxGeometry width="50" height="50" relative="1" as="geometry">
            <mxPoint x="400" y="620" as="sourcePoint" />
            <mxPoint x="450" y="570" as="targetPoint" />
          </mxGeometry>
        </mxCell>
        <mxCell id="Z0Qa1kHuuDU5W5lxsVWx-100" value="BTU" style="ellipse;whiteSpace=wrap;html=1;align=center;" parent="1" vertex="1">
          <mxGeometry x="570" y="530" width="100" height="40" as="geometry" />
        </mxCell>
        <mxCell id="Z0Qa1kHuuDU5W5lxsVWx-102" value="&lt;span style=&quot;border-bottom: 1px dotted&quot;&gt;ApplianceID&lt;/span&gt;" style="ellipse;whiteSpace=wrap;html=1;align=center;" parent="1" vertex="1">
          <mxGeometry x="540" y="478" width="100" height="40" as="geometry" />
        </mxCell>
        <mxCell id="Z0Qa1kHuuDU5W5lxsVWx-103" value="Add" style="shape=rhombus;double=1;perimeter=rhombusPerimeter;whiteSpace=wrap;html=1;align=center;" parent="1" vertex="1">
          <mxGeometry x="445" y="400" width="120" height="60" as="geometry" />
        </mxCell>
        <mxCell id="Z0Qa1kHuuDU5W5lxsVWx-104" value="" style="shape=link;html=1;rounded=0;exitX=0.5;exitY=1;exitDx=0;exitDy=0;entryX=0.41;entryY=-0.05;entryDx=0;entryDy=0;entryPerimeter=0;" parent="1" source="Z0Qa1kHuuDU5W5lxsVWx-103" target="Z0Qa1kHuuDU5W5lxsVWx-106" edge="1">
          <mxGeometry relative="1" as="geometry">
            <mxPoint x="340" y="500" as="sourcePoint" />
            <mxPoint x="600" y="540" as="targetPoint" />
          </mxGeometry>
        </mxCell>
        <mxCell id="Z0Qa1kHuuDU5W5lxsVWx-105" value="N" style="resizable=0;html=1;whiteSpace=wrap;align=right;verticalAlign=bottom;" parent="Z0Qa1kHuuDU5W5lxsVWx-104" connectable="0" vertex="1">
          <mxGeometry x="1" relative="1" as="geometry" />
        </mxCell>
        <mxCell id="Z0Qa1kHuuDU5W5lxsVWx-108" value="AirConditioner" style="whiteSpace=wrap;html=1;align=center;" parent="1" vertex="1">
          <mxGeometry x="275" y="920" width="100" height="40" as="geometry" />
        </mxCell>
        <mxCell id="Z0Qa1kHuuDU5W5lxsVWx-109" value="Heater" style="whiteSpace=wrap;html=1;align=center;" parent="1" vertex="1">
          <mxGeometry x="400" y="920" width="100" height="40" as="geometry" />
        </mxCell>
        <mxCell id="Z0Qa1kHuuDU5W5lxsVWx-110" value="HeatPump" style="whiteSpace=wrap;html=1;align=center;" parent="1" vertex="1">
          <mxGeometry x="560" y="920" width="100" height="40" as="geometry" />
        </mxCell>
        <mxCell id="Z0Qa1kHuuDU5W5lxsVWx-111" value="EER" style="ellipse;whiteSpace=wrap;html=1;align=center;" parent="1" vertex="1">
          <mxGeometry x="275" y="1000" width="100" height="40" as="geometry" />
        </mxCell>
        <mxCell id="Z0Qa1kHuuDU5W5lxsVWx-112" value="EnergySourceID1" style="ellipse;whiteSpace=wrap;html=1;align=center;" parent="1" vertex="1">
          <mxGeometry x="400" y="1000" width="100" height="40" as="geometry" />
        </mxCell>
        <mxCell id="Z0Qa1kHuuDU5W5lxsVWx-113" value="SEER" style="ellipse;whiteSpace=wrap;html=1;align=center;" parent="1" vertex="1">
          <mxGeometry x="520" y="1000" width="100" height="40" as="geometry" />
        </mxCell>
        <mxCell id="Z0Qa1kHuuDU5W5lxsVWx-114" value="HSPF" style="ellipse;whiteSpace=wrap;html=1;align=center;" parent="1" vertex="1">
          <mxGeometry x="640" y="990" width="100" height="40" as="geometry" />
        </mxCell>
        <mxCell id="Z0Qa1kHuuDU5W5lxsVWx-115" value="O" style="ellipse;whiteSpace=wrap;html=1;aspect=fixed;" parent="1" vertex="1">
          <mxGeometry x="425" y="860" width="30" height="30" as="geometry" />
        </mxCell>
        <mxCell id="Z0Qa1kHuuDU5W5lxsVWx-116" value="" style="endArrow=none;html=1;rounded=0;entryX=1;entryY=1;entryDx=0;entryDy=0;exitX=0.25;exitY=0;exitDx=0;exitDy=0;" parent="1" source="Z0Qa1kHuuDU5W5lxsVWx-110" target="Z0Qa1kHuuDU5W5lxsVWx-115" edge="1">
          <mxGeometry width="50" height="50" relative="1" as="geometry">
            <mxPoint x="400" y="820" as="sourcePoint" />
            <mxPoint x="450" y="770" as="targetPoint" />
          </mxGeometry>
        </mxCell>
        <mxCell id="Z0Qa1kHuuDU5W5lxsVWx-117" value="" style="endArrow=none;html=1;rounded=0;exitX=0.5;exitY=1;exitDx=0;exitDy=0;entryX=0.5;entryY=0;entryDx=0;entryDy=0;" parent="1" source="Z0Qa1kHuuDU5W5lxsVWx-115" target="Z0Qa1kHuuDU5W5lxsVWx-109" edge="1">
          <mxGeometry width="50" height="50" relative="1" as="geometry">
            <mxPoint x="400" y="820" as="sourcePoint" />
            <mxPoint x="450" y="770" as="targetPoint" />
          </mxGeometry>
        </mxCell>
        <mxCell id="Z0Qa1kHuuDU5W5lxsVWx-118" value="" style="endArrow=none;html=1;rounded=0;entryX=0;entryY=1;entryDx=0;entryDy=0;exitX=0.89;exitY=0.05;exitDx=0;exitDy=0;exitPerimeter=0;" parent="1" source="Z0Qa1kHuuDU5W5lxsVWx-108" target="Z0Qa1kHuuDU5W5lxsVWx-115" edge="1">
          <mxGeometry width="50" height="50" relative="1" as="geometry">
            <mxPoint x="420" y="810" as="sourcePoint" />
            <mxPoint x="450" y="770" as="targetPoint" />
          </mxGeometry>
        </mxCell>
        <mxCell id="Z0Qa1kHuuDU5W5lxsVWx-119" value="" style="endArrow=none;html=1;rounded=0;entryX=0.5;entryY=1;entryDx=0;entryDy=0;exitX=0.5;exitY=0;exitDx=0;exitDy=0;" parent="1" source="Z0Qa1kHuuDU5W5lxsVWx-115" target="Z0Qa1kHuuDU5W5lxsVWx-92" edge="1">
          <mxGeometry width="50" height="50" relative="1" as="geometry">
            <mxPoint x="400" y="820" as="sourcePoint" />
            <mxPoint x="450" y="770" as="targetPoint" />
          </mxGeometry>
        </mxCell>
        <mxCell id="Z0Qa1kHuuDU5W5lxsVWx-120" value="" style="endArrow=none;html=1;rounded=0;entryX=0.39;entryY=0.975;entryDx=0;entryDy=0;entryPerimeter=0;exitX=0.5;exitY=0;exitDx=0;exitDy=0;" parent="1" source="Z0Qa1kHuuDU5W5lxsVWx-113" target="Z0Qa1kHuuDU5W5lxsVWx-110" edge="1">
          <mxGeometry width="50" height="50" relative="1" as="geometry">
            <mxPoint x="400" y="820" as="sourcePoint" />
            <mxPoint x="450" y="770" as="targetPoint" />
          </mxGeometry>
        </mxCell>
        <mxCell id="Z0Qa1kHuuDU5W5lxsVWx-121" value="" style="endArrow=none;html=1;rounded=0;entryX=0.5;entryY=1;entryDx=0;entryDy=0;exitX=0.5;exitY=0;exitDx=0;exitDy=0;" parent="1" source="Z0Qa1kHuuDU5W5lxsVWx-112" target="Z0Qa1kHuuDU5W5lxsVWx-109" edge="1">
          <mxGeometry width="50" height="50" relative="1" as="geometry">
            <mxPoint x="400" y="820" as="sourcePoint" />
            <mxPoint x="450" y="770" as="targetPoint" />
          </mxGeometry>
        </mxCell>
        <mxCell id="Z0Qa1kHuuDU5W5lxsVWx-122" value="" style="endArrow=none;html=1;rounded=0;exitX=0.38;exitY=-0.025;exitDx=0;exitDy=0;exitPerimeter=0;entryX=0.5;entryY=1;entryDx=0;entryDy=0;" parent="1" source="Z0Qa1kHuuDU5W5lxsVWx-111" target="Z0Qa1kHuuDU5W5lxsVWx-108" edge="1">
          <mxGeometry width="50" height="50" relative="1" as="geometry">
            <mxPoint x="400" y="820" as="sourcePoint" />
            <mxPoint x="450" y="770" as="targetPoint" />
          </mxGeometry>
        </mxCell>
        <mxCell id="Z0Qa1kHuuDU5W5lxsVWx-123" value="" style="endArrow=none;html=1;rounded=0;entryX=0.5;entryY=1;entryDx=0;entryDy=0;exitX=0.2;exitY=0;exitDx=0;exitDy=0;exitPerimeter=0;" parent="1" source="Z0Qa1kHuuDU5W5lxsVWx-114" target="Z0Qa1kHuuDU5W5lxsVWx-110" edge="1">
          <mxGeometry width="50" height="50" relative="1" as="geometry">
            <mxPoint x="400" y="820" as="sourcePoint" />
            <mxPoint x="450" y="770" as="targetPoint" />
          </mxGeometry>
        </mxCell>
        <mxCell id="Z0Qa1kHuuDU5W5lxsVWx-124" value="Add" style="shape=rhombus;double=1;perimeter=rhombusPerimeter;whiteSpace=wrap;html=1;align=center;" parent="1" vertex="1">
          <mxGeometry x="700" y="390" width="120" height="60" as="geometry" />
        </mxCell>
        <mxCell id="Z0Qa1kHuuDU5W5lxsVWx-125" value="" style="endArrow=none;html=1;rounded=0;entryX=0.033;entryY=0.567;entryDx=0;entryDy=0;entryPerimeter=0;exitX=0.5;exitY=0;exitDx=0;exitDy=0;" parent="1" source="Z0Qa1kHuuDU5W5lxsVWx-124" target="Z0Qa1kHuuDU5W5lxsVWx-91" edge="1">
          <mxGeometry width="50" height="50" relative="1" as="geometry">
            <mxPoint x="640" y="420" as="sourcePoint" />
            <mxPoint x="690" y="370" as="targetPoint" />
          </mxGeometry>
        </mxCell>
        <mxCell id="Z0Qa1kHuuDU5W5lxsVWx-126" value="PowerGenerator" style="shape=ext;margin=3;double=1;whiteSpace=wrap;html=1;align=center;" parent="1" vertex="1">
          <mxGeometry x="720" y="518" width="100" height="40" as="geometry" />
        </mxCell>
        <mxCell id="Z0Qa1kHuuDU5W5lxsVWx-127" value="Type" style="ellipse;whiteSpace=wrap;html=1;align=center;" parent="1" vertex="1">
          <mxGeometry x="690" y="590" width="100" height="40" as="geometry" />
        </mxCell>
        <mxCell id="Z0Qa1kHuuDU5W5lxsVWx-128" value="Monthly KWH" style="ellipse;whiteSpace=wrap;html=1;align=center;" parent="1" vertex="1">
          <mxGeometry x="740" y="640" width="100" height="40" as="geometry" />
        </mxCell>
        <mxCell id="Z0Qa1kHuuDU5W5lxsVWx-129" value="&lt;span style=&quot;border-bottom: 1px dotted&quot;&gt;GeneratorID&lt;/span&gt;" style="ellipse;whiteSpace=wrap;html=1;align=center;" parent="1" vertex="1">
          <mxGeometry x="580" y="400" width="100" height="40" as="geometry" />
        </mxCell>
        <mxCell id="Z0Qa1kHuuDU5W5lxsVWx-130" value="Storage KWH" style="ellipse;whiteSpace=wrap;html=1;align=center;" parent="1" vertex="1">
          <mxGeometry x="610" y="620" width="100" height="40" as="geometry" />
        </mxCell>
        <mxCell id="Z0Qa1kHuuDU5W5lxsVWx-131" value="" style="endArrow=none;html=1;rounded=0;entryX=0.558;entryY=1;entryDx=0;entryDy=0;entryPerimeter=0;exitX=0.5;exitY=0;exitDx=0;exitDy=0;" parent="1" source="Z0Qa1kHuuDU5W5lxsVWx-126" target="Z0Qa1kHuuDU5W5lxsVWx-124" edge="1">
          <mxGeometry width="50" height="50" relative="1" as="geometry">
            <mxPoint x="640" y="520" as="sourcePoint" />
            <mxPoint x="690" y="470" as="targetPoint" />
          </mxGeometry>
        </mxCell>
        <mxCell id="Z0Qa1kHuuDU5W5lxsVWx-133" value="" style="endArrow=none;html=1;rounded=0;entryX=0.5;entryY=0;entryDx=0;entryDy=0;exitX=0.75;exitY=1;exitDx=0;exitDy=0;" parent="1" source="Z0Qa1kHuuDU5W5lxsVWx-126" target="Z0Qa1kHuuDU5W5lxsVWx-128" edge="1">
          <mxGeometry width="50" height="50" relative="1" as="geometry">
            <mxPoint x="920" y="580" as="sourcePoint" />
            <mxPoint x="690" y="570" as="targetPoint" />
            <Array as="points" />
          </mxGeometry>
        </mxCell>
        <mxCell id="Z0Qa1kHuuDU5W5lxsVWx-134" value="" style="endArrow=none;html=1;rounded=0;entryX=0.6;entryY=-0.05;entryDx=0;entryDy=0;exitX=0.5;exitY=1;exitDx=0;exitDy=0;entryPerimeter=0;" parent="1" source="Z0Qa1kHuuDU5W5lxsVWx-126" target="Z0Qa1kHuuDU5W5lxsVWx-127" edge="1">
          <mxGeometry width="50" height="50" relative="1" as="geometry">
            <mxPoint x="640" y="620" as="sourcePoint" />
            <mxPoint x="690" y="570" as="targetPoint" />
          </mxGeometry>
        </mxCell>
        <mxCell id="Z0Qa1kHuuDU5W5lxsVWx-135" value="" style="endArrow=none;html=1;rounded=0;entryX=1;entryY=0.5;entryDx=0;entryDy=0;exitX=0;exitY=0.5;exitDx=0;exitDy=0;" parent="1" source="Z0Qa1kHuuDU5W5lxsVWx-124" target="Z0Qa1kHuuDU5W5lxsVWx-129" edge="1">
          <mxGeometry width="50" height="50" relative="1" as="geometry">
            <mxPoint x="970" y="570" as="sourcePoint" />
            <mxPoint x="690" y="570" as="targetPoint" />
          </mxGeometry>
        </mxCell>
        <mxCell id="Z0Qa1kHuuDU5W5lxsVWx-136" value="" style="endArrow=none;html=1;rounded=0;entryX=0.5;entryY=0;entryDx=0;entryDy=0;" parent="1" source="Z0Qa1kHuuDU5W5lxsVWx-102" target="Z0Qa1kHuuDU5W5lxsVWx-106" edge="1">
          <mxGeometry width="50" height="50" relative="1" as="geometry">
            <mxPoint x="640" y="620" as="sourcePoint" />
            <mxPoint x="690" y="570" as="targetPoint" />
          </mxGeometry>
        </mxCell>
        <mxCell id="Z0Qa1kHuuDU5W5lxsVWx-137" value="" style="endArrow=none;html=1;rounded=0;entryX=0;entryY=0.5;entryDx=0;entryDy=0;exitX=0.82;exitY=-0.05;exitDx=0;exitDy=0;exitPerimeter=0;" parent="1" source="Z0Qa1kHuuDU5W5lxsVWx-106" target="Z0Qa1kHuuDU5W5lxsVWx-100" edge="1">
          <mxGeometry width="50" height="50" relative="1" as="geometry">
            <mxPoint x="640" y="620" as="sourcePoint" />
            <mxPoint x="690" y="570" as="targetPoint" />
          </mxGeometry>
        </mxCell>
        <mxCell id="Z0Qa1kHuuDU5W5lxsVWx-138" value="" style="endArrow=none;html=1;rounded=0;entryX=0.5;entryY=0;entryDx=0;entryDy=0;exitX=0.34;exitY=1;exitDx=0;exitDy=0;exitPerimeter=0;" parent="1" source="Z0Qa1kHuuDU5W5lxsVWx-126" target="Z0Qa1kHuuDU5W5lxsVWx-130" edge="1">
          <mxGeometry width="50" height="50" relative="1" as="geometry">
            <mxPoint x="640" y="620" as="sourcePoint" />
            <mxPoint x="690" y="570" as="targetPoint" />
          </mxGeometry>
        </mxCell>
        <mxCell id="Z0Qa1kHuuDU5W5lxsVWx-140" value="" style="shape=link;html=1;rounded=0;exitX=0.5;exitY=0;exitDx=0;exitDy=0;" parent="1" source="Z0Qa1kHuuDU5W5lxsVWx-95" target="Z0Qa1kHuuDU5W5lxsVWx-106" edge="1">
          <mxGeometry relative="1" as="geometry">
            <mxPoint x="600" y="630" as="sourcePoint" />
            <mxPoint x="600" y="580" as="targetPoint" />
          </mxGeometry>
        </mxCell>
        <mxCell id="Z0Qa1kHuuDU5W5lxsVWx-106" value="Appliance" style="shape=ext;margin=3;double=1;whiteSpace=wrap;html=1;align=center;" parent="1" vertex="1">
          <mxGeometry x="465" y="570" width="100" height="40" as="geometry" />
        </mxCell>
        <mxCell id="Z0Qa1kHuuDU5W5lxsVWx-145" value="" style="shape=link;html=1;rounded=0;exitX=0.5;exitY=0;exitDx=0;exitDy=0;entryX=0;entryY=1;entryDx=0;entryDy=0;" parent="1" source="Z0Qa1kHuuDU5W5lxsVWx-148" target="Z0Qa1kHuuDU5W5lxsVWx-106" edge="1">
          <mxGeometry relative="1" as="geometry">
            <mxPoint x="200" y="720" as="sourcePoint" />
            <mxPoint x="560" y="558" as="targetPoint" />
            <Array as="points">
              <mxPoint x="380" y="660" />
            </Array>
          </mxGeometry>
        </mxCell>
        <mxCell id="Z0Qa1kHuuDU5W5lxsVWx-146" value="1" style="resizable=0;html=1;whiteSpace=wrap;align=right;verticalAlign=bottom;" parent="Z0Qa1kHuuDU5W5lxsVWx-145" connectable="0" vertex="1">
          <mxGeometry x="1" relative="1" as="geometry" />
        </mxCell>
        <mxCell id="Z0Qa1kHuuDU5W5lxsVWx-148" value="Has" style="shape=rhombus;perimeter=rhombusPerimeter;whiteSpace=wrap;html=1;align=center;" parent="1" vertex="1">
          <mxGeometry x="80" y="720" width="120" height="60" as="geometry" />
        </mxCell>
        <mxCell id="Z0Qa1kHuuDU5W5lxsVWx-149" value="Manufacturer" style="whiteSpace=wrap;html=1;align=center;" parent="1" vertex="1">
          <mxGeometry x="110" y="830" width="100" height="40" as="geometry" />
        </mxCell>
        <mxCell id="Z0Qa1kHuuDU5W5lxsVWx-150" value="ManufacturerID" style="ellipse;whiteSpace=wrap;html=1;align=center;fontStyle=4;" parent="1" vertex="1">
          <mxGeometry x="30" y="890" width="100" height="40" as="geometry" />
        </mxCell>
        <mxCell id="Z0Qa1kHuuDU5W5lxsVWx-151" value="Name" style="ellipse;whiteSpace=wrap;html=1;align=center;" parent="1" vertex="1">
          <mxGeometry x="160" y="890" width="100" height="40" as="geometry" />
        </mxCell>
        <mxCell id="Z0Qa1kHuuDU5W5lxsVWx-153" value="" style="endArrow=none;html=1;rounded=0;entryX=0.5;entryY=1;entryDx=0;entryDy=0;exitX=0.5;exitY=0;exitDx=0;exitDy=0;" parent="1" source="Z0Qa1kHuuDU5W5lxsVWx-149" target="Z0Qa1kHuuDU5W5lxsVWx-148" edge="1">
          <mxGeometry width="50" height="50" relative="1" as="geometry">
            <mxPoint x="360" y="820" as="sourcePoint" />
            <mxPoint x="410" y="770" as="targetPoint" />
          </mxGeometry>
        </mxCell>
        <mxCell id="Z0Qa1kHuuDU5W5lxsVWx-154" value="" style="endArrow=none;html=1;rounded=0;exitX=0.5;exitY=0;exitDx=0;exitDy=0;" parent="1" source="Z0Qa1kHuuDU5W5lxsVWx-150" edge="1">
          <mxGeometry width="50" height="50" relative="1" as="geometry">
            <mxPoint x="360" y="820" as="sourcePoint" />
            <mxPoint x="140" y="870" as="targetPoint" />
          </mxGeometry>
        </mxCell>
        <mxCell id="Z0Qa1kHuuDU5W5lxsVWx-155" value="" style="endArrow=none;html=1;rounded=0;exitX=0.64;exitY=1.025;exitDx=0;exitDy=0;exitPerimeter=0;entryX=0.4;entryY=0;entryDx=0;entryDy=0;entryPerimeter=0;" parent="1" source="Z0Qa1kHuuDU5W5lxsVWx-149" target="Z0Qa1kHuuDU5W5lxsVWx-151" edge="1">
          <mxGeometry width="50" height="50" relative="1" as="geometry">
            <mxPoint x="360" y="820" as="sourcePoint" />
            <mxPoint x="410" y="770" as="targetPoint" />
          </mxGeometry>
        </mxCell>
        <mxCell id="Z0Qa1kHuuDU5W5lxsVWx-156" value="" style="endArrow=none;html=1;rounded=0;exitX=1;exitY=0.5;exitDx=0;exitDy=0;" parent="1" source="Z0Qa1kHuuDU5W5lxsVWx-7" target="Z0Qa1kHuuDU5W5lxsVWx-5" edge="1">
          <mxGeometry width="50" height="50" relative="1" as="geometry">
            <mxPoint x="360" y="120" as="sourcePoint" />
            <mxPoint x="410" y="70" as="targetPoint" />
          </mxGeometry>
        </mxCell>
        <mxCell id="Z0Qa1kHuuDU5W5lxsVWx-157" value="N" style="text;html=1;align=center;verticalAlign=middle;resizable=0;points=[];autosize=1;strokeColor=none;fillColor=none;" parent="1" vertex="1">
          <mxGeometry x="770" y="488" width="30" height="30" as="geometry" />
        </mxCell>
        <mxCell id="Z0Qa1kHuuDU5W5lxsVWx-159" value="EnergySourceID2" style="ellipse;whiteSpace=wrap;html=1;align=center;" parent="1" vertex="1">
          <mxGeometry x="530" y="830" width="100" height="40" as="geometry" />
        </mxCell>
        <mxCell id="Z0Qa1kHuuDU5W5lxsVWx-160" value="TankSize" style="ellipse;whiteSpace=wrap;html=1;align=center;" parent="1" vertex="1">
          <mxGeometry x="640" y="830" width="100" height="40" as="geometry" />
        </mxCell>
        <mxCell id="Z0Qa1kHuuDU5W5lxsVWx-161" value="TempSetting" style="ellipse;whiteSpace=wrap;html=1;align=center;" parent="1" vertex="1">
          <mxGeometry x="750" y="830" width="100" height="40" as="geometry" />
        </mxCell>
        <mxCell id="Z0Qa1kHuuDU5W5lxsVWx-162" value="" style="endArrow=none;html=1;rounded=0;exitX=0.29;exitY=0.1;exitDx=0;exitDy=0;exitPerimeter=0;" parent="1" source="Z0Qa1kHuuDU5W5lxsVWx-161" edge="1">
          <mxGeometry width="50" height="50" relative="1" as="geometry">
            <mxPoint x="370" y="820" as="sourcePoint" />
            <mxPoint x="650" y="750" as="targetPoint" />
          </mxGeometry>
        </mxCell>
        <mxCell id="Z0Qa1kHuuDU5W5lxsVWx-163" value="" style="endArrow=none;html=1;rounded=0;exitX=0.5;exitY=0;exitDx=0;exitDy=0;entryX=0.75;entryY=1;entryDx=0;entryDy=0;" parent="1" source="Z0Qa1kHuuDU5W5lxsVWx-160" target="Z0Qa1kHuuDU5W5lxsVWx-93" edge="1">
          <mxGeometry width="50" height="50" relative="1" as="geometry">
            <mxPoint x="370" y="820" as="sourcePoint" />
            <mxPoint x="420" y="770" as="targetPoint" />
          </mxGeometry>
        </mxCell>
        <mxCell id="Z0Qa1kHuuDU5W5lxsVWx-164" value="" style="endArrow=none;html=1;rounded=0;entryX=0.38;entryY=1.025;entryDx=0;entryDy=0;entryPerimeter=0;" parent="1" source="Z0Qa1kHuuDU5W5lxsVWx-159" target="Z0Qa1kHuuDU5W5lxsVWx-93" edge="1">
          <mxGeometry width="50" height="50" relative="1" as="geometry">
            <mxPoint x="370" y="820" as="sourcePoint" />
            <mxPoint x="420" y="770" as="targetPoint" />
          </mxGeometry>
        </mxCell>
        <mxCell id="Z0Qa1kHuuDU5W5lxsVWx-168" value="1" style="text;html=1;align=center;verticalAlign=middle;resizable=0;points=[];autosize=1;strokeColor=none;fillColor=none;" parent="1" vertex="1">
          <mxGeometry x="135" y="808" width="30" height="30" as="geometry" />
        </mxCell>
        <mxCell id="Z0Qa1kHuuDU5W5lxsVWx-169" value="Email" style="ellipse;whiteSpace=wrap;html=1;align=center;fontStyle=4;" parent="1" vertex="1">
          <mxGeometry x="150" y="70" width="100" height="40" as="geometry" />
        </mxCell>
        <mxCell id="Z0Qa1kHuuDU5W5lxsVWx-170" value="" style="endArrow=none;html=1;rounded=0;entryX=0.5;entryY=1;entryDx=0;entryDy=0;exitX=0.37;exitY=0.075;exitDx=0;exitDy=0;exitPerimeter=0;" parent="1" source="Z0Qa1kHuuDU5W5lxsVWx-86" target="Z0Qa1kHuuDU5W5lxsVWx-169" edge="1">
          <mxGeometry width="50" height="50" relative="1" as="geometry">
            <mxPoint x="370" y="370" as="sourcePoint" />
            <mxPoint x="420" y="320" as="targetPoint" />
          </mxGeometry>
        </mxCell>
        <mxCell id="Z0Qa1kHuuDU5W5lxsVWx-174" value="1" style="text;html=1;align=center;verticalAlign=middle;resizable=0;points=[];autosize=1;strokeColor=none;fillColor=none;" parent="1" vertex="1">
          <mxGeometry x="355" y="478" width="30" height="30" as="geometry" />
        </mxCell>
      </root>
    </mxGraphModel>
  </diagram>
</mxfile>
